<?xml version="1.0" encoding="UTF-8"?><!DOCTYPE svg PUBLIC "-//W3C//DTD SVG 1.1//EN" "http://www.w3.org/Graphics/SVG/1.1/DTD/svg11.dtd"><svg xmlns="http://www.w3.org/2000/svg" xmlns:xlink="http://www.w3.org/1999/xlink"><defs>
<clipPath id="clip0">
<rect width="23" height="22" fill="white"/>
</clipPath>

<clipPath id="clip0">
<rect width="23" height="22" fill="white"/>
</clipPath>
</defs><symbol id="bike" viewBox="0 0 23 22">
<path opacity="0.15" d="M17.4297 19.25C16.6123 19.25 15.8133 19.0182 15.1336 18.5838C14.454 18.1494 13.9243 17.532 13.6115 16.8097C13.2987 16.0873 13.2168 15.2925 13.3763 14.5257C13.5358 13.7588 13.9294 13.0544 14.5073 12.5016C15.0853 11.9487 15.8217 11.5722 16.6234 11.4197C17.4251 11.2672 18.2561 11.3455 19.0112 11.6447C19.7664 11.9439 20.4119 12.4506 20.866 13.1006C21.3201 13.7507 21.5625 14.515 21.5625 15.2969C21.5613 16.345 21.1255 17.3498 20.3507 18.0909C19.5759 18.832 18.5254 19.2489 17.4297 19.25ZM17.4297 12.7188C16.8966 12.7188 16.3755 12.87 15.9323 13.1532C15.489 13.4365 15.1435 13.8392 14.9395 14.3103C14.7355 14.7814 14.6822 15.2997 14.7862 15.7998C14.8902 16.3 15.1469 16.7593 15.5238 17.1199C15.9008 17.4804 16.381 17.726 16.9039 17.8255C17.4267 17.9249 17.9686 17.8739 18.4611 17.6788C18.9536 17.4836 19.3746 17.1532 19.6708 16.7292C19.9669 16.3052 20.125 15.8068 20.125 15.2969C20.1242 14.6134 19.8399 13.9581 19.3346 13.4747C18.8294 12.9914 18.1443 12.7195 17.4297 12.7188Z" fill="#1D2E5B"/>
<path opacity="0.15" d="M5.57031 19.25C4.75292 19.25 3.95388 19.0182 3.27425 18.5838C2.59461 18.1494 2.0649 17.532 1.75209 16.8097C1.43929 16.0873 1.35745 15.2925 1.51691 14.5257C1.67638 13.7588 2.06999 13.0544 2.64797 12.5016C3.22596 11.9487 3.96236 11.5722 4.76404 11.4197C5.56573 11.2672 6.3967 11.3455 7.15187 11.6447C7.90705 11.9439 8.5525 12.4506 9.00662 13.1006C9.46074 13.7507 9.70313 14.515 9.70313 15.2969C9.70194 16.345 9.26614 17.3498 8.49134 18.0909C7.71655 18.832 6.66604 19.2489 5.57031 19.25ZM5.57031 12.7188C5.03723 12.7188 4.51612 12.87 4.07288 13.1532C3.62964 13.4365 3.28417 13.8392 3.08017 14.3103C2.87617 14.7814 2.82279 15.2997 2.92679 15.7998C3.03079 16.3 3.28749 16.7593 3.66444 17.1199C4.04139 17.4804 4.52165 17.726 5.04448 17.8255C5.56732 17.9249 6.10926 17.8739 6.60177 17.6788C7.09427 17.4836 7.51522 17.1532 7.81139 16.7292C8.10755 16.3052 8.26563 15.8068 8.26563 15.2969C8.26479 14.6134 7.98056 13.9581 7.47527 13.4747C6.96998 12.9914 6.2849 12.7195 5.57031 12.7188Z" fill="#1D2E5B"/>
<path opacity="0.15" d="M14.375 5.50001C14.5643 5.50064 14.7519 5.46536 14.9269 5.39622C15.1019 5.32707 15.2608 5.22543 15.3945 5.09716C15.5282 4.9689 15.634 4.81657 15.7057 4.64896C15.7775 4.48136 15.8137 4.30182 15.8125 4.12072C15.8146 3.94052 15.7791 3.76173 15.7081 3.5948C15.6371 3.42788 15.5321 3.27617 15.399 3.14854C15.266 3.02091 15.1078 2.91993 14.9335 2.85151C14.7592 2.78308 14.5724 2.74857 14.384 2.75001C14.1952 2.74945 14.0082 2.78445 13.8335 2.85303C13.6589 2.92161 13.5001 3.02242 13.3662 3.1497C13.2323 3.27698 13.1259 3.42825 13.0531 3.59485C12.9803 3.76146 12.9426 3.94015 12.942 4.12072C12.9414 4.30128 12.978 4.48019 13.0497 4.64723C13.1214 4.81427 13.2268 4.96617 13.3599 5.09425C13.4929 5.22233 13.6511 5.32408 13.8252 5.3937C13.9994 5.46332 14.1862 5.49945 14.375 5.50001Z" fill="#1D2E5B"/>
<path opacity="0.15" d="M16.511 8.25007H14.5453C14.513 8.25008 14.4814 8.24178 14.4536 8.22606C14.4259 8.21033 14.4031 8.18776 14.3876 8.1607L12.9618 5.6612C12.8613 5.47545 12.7165 5.31494 12.5392 5.19266C12.3618 5.07037 12.1568 4.98976 11.9408 4.95733C11.7248 4.92491 11.5039 4.94158 11.2959 5.00601C11.0879 5.07044 10.8986 5.18082 10.7435 5.3282L7.60527 8.3532C7.34163 8.61059 7.19197 8.95537 7.1875 9.3157C7.1875 10.0634 7.75352 10.3298 8.01855 10.4801C9.29883 11.1857 10.2004 11.7018 10.695 11.9884C10.7213 12.0037 10.743 12.0252 10.7581 12.0508C10.7732 12.0765 10.7812 12.1054 10.7813 12.1349V15.1049C10.7813 15.4748 11.0786 15.7924 11.4654 15.8109C11.5625 15.8153 11.6596 15.8009 11.7507 15.7685C11.8418 15.736 11.9251 15.6863 11.9955 15.6222C12.0659 15.5581 12.122 15.4809 12.1604 15.3955C12.1988 15.3101 12.2186 15.2181 12.2188 15.1251V11.4298C12.2188 11.3206 12.1917 11.213 12.1397 11.1159C12.0877 11.0188 12.0122 10.9349 11.9196 10.8712L10.2575 9.72777C10.2366 9.71349 10.2192 9.6951 10.2064 9.67384C10.1935 9.65259 10.1856 9.62895 10.1832 9.60453C10.1807 9.5801 10.1837 9.55545 10.192 9.53224C10.2004 9.50903 10.2138 9.48779 10.2314 9.46995L12.1181 7.54538C12.1375 7.52558 12.1614 7.51044 12.1881 7.50119C12.2147 7.49193 12.2432 7.48884 12.2714 7.49215C12.2995 7.49546 12.3264 7.50508 12.3499 7.52023C12.3734 7.53538 12.3928 7.55563 12.4065 7.57933L13.3867 9.27144C13.449 9.3787 13.5402 9.46806 13.6508 9.53025C13.7614 9.59243 13.8873 9.62517 14.0156 9.62507H16.5313C16.6286 9.62518 16.725 9.60636 16.8145 9.56976C16.9041 9.53316 16.9849 9.47954 17.0521 9.41215C17.1193 9.34477 17.1715 9.26502 17.2055 9.17775C17.2396 9.09048 17.2547 8.99751 17.25 8.90448C17.2311 8.53452 16.8978 8.25007 16.511 8.25007Z" fill="#1D2E5B"/>
</symbol><symbol id="bus" viewBox="0 0 23 22">
<g clip-path="url(#clip0)">
<path d="M5.75127 14.9286C5.75127 14.4948 5.56417 14.1244 5.18998 13.8175C4.81579 13.5106 4.36426 13.3571 3.8354 13.3571C3.30654 13.3571 2.85501 13.5106 2.48082 13.8175C2.10663 14.1244 1.91953 14.4948 1.91953 14.9286C1.91953 15.3624 2.10663 15.7327 2.48082 16.0396C2.85501 16.3465 3.30654 16.5 3.8354 16.5C4.36426 16.5 4.81579 16.3465 5.18998 16.0396C5.56417 15.7327 5.75127 15.3624 5.75127 14.9286ZM21.0782 14.9286C21.0782 14.4948 20.8911 14.1244 20.5169 13.8175C20.1427 13.5106 19.6912 13.3571 19.1623 13.3571C18.6335 13.3571 18.182 13.5106 17.8078 13.8175C17.4336 14.1244 17.2465 14.4948 17.2465 14.9286C17.2465 15.3624 17.4336 15.7327 17.8078 16.0396C18.182 16.3465 18.6335 16.5 19.1623 16.5C19.6912 16.5 20.1427 16.3465 20.5169 16.0396C20.8911 15.7327 21.0782 15.3624 21.0782 14.9286ZM20.3897 10.067L19.312 5.35268C19.2621 5.16443 19.1499 5.01097 18.9753 4.8923C18.8006 4.77362 18.5986 4.71429 18.3691 4.71429H4.62869C4.39918 4.71429 4.19712 4.77362 4.0225 4.8923C3.84787 5.01097 3.73561 5.16443 3.68572 5.35268L2.60805 10.067C2.55815 10.3125 2.628 10.5294 2.81759 10.7176C3.00719 10.9059 3.25166 11 3.55101 11H19.4467C19.7461 11 19.9906 10.9059 20.1802 10.7176C20.3697 10.5294 20.4396 10.3125 20.3897 10.067ZM17.007 2.55357C17.007 2.38988 16.9371 2.25074 16.7974 2.13616C16.6577 2.02158 16.4881 1.96429 16.2885 1.96429H6.7092C6.50963 1.96429 6.34 2.02158 6.2003 2.13616C6.0606 2.25074 5.99075 2.38988 5.99075 2.55357C5.99075 2.71726 6.0606 2.8564 6.2003 2.97098C6.34 3.08557 6.50963 3.14286 6.7092 3.14286H16.2885C16.4881 3.14286 16.6577 3.08557 16.7974 2.97098C16.9371 2.8564 17.007 2.71726 17.007 2.55357ZM22.9941 11.4542V18.8571H21.0782V20.4286C21.0782 20.8624 20.8911 21.2327 20.5169 21.5396C20.1427 21.8465 19.6912 22 19.1623 22C18.6335 22 18.182 21.8465 17.8078 21.5396C17.4336 21.2327 17.2465 20.8624 17.2465 20.4286V18.8571H5.75127V20.4286C5.75127 20.8624 5.56417 21.2327 5.18998 21.5396C4.81579 21.8465 4.36426 22 3.8354 22C3.30654 22 2.85501 21.8465 2.48082 21.5396C2.10663 21.2327 1.91953 20.8624 1.91953 20.4286V18.8571H0.00366211V11.4542C0.00366211 10.5376 0.128393 9.625 0.377855 8.71652L1.91953 3.14286C2.00934 2.50446 2.49579 1.94382 3.37888 1.46094C4.26198 0.978051 5.4095 0.613839 6.82146 0.368304C8.23342 0.122768 9.79255 0 11.4989 0C13.2052 0 14.7643 0.122768 16.1763 0.368304C17.5882 0.613839 18.7358 0.978051 19.6189 1.46094C20.502 1.94382 20.9884 2.50446 21.0782 3.14286L22.6498 8.71652C22.8793 9.55134 22.9941 10.4639 22.9941 11.4542Z" fill="#1D2E5B"/>
</g>

</symbol><symbol id="facebook" viewBox="0 0 11 21">
<g>
  <path d="M7.8,21H2.2v-9.8H0V6.4h2.1C2,4.2,2.4,2.6,3.4,1.5C4.2,0.6,5.5,0.1,7.1,0L11,0v4.7H7.9C7.8,4.9,7.7,5.5,7.7,6.4H11v4.8H7.8
    V21z M3.4,19.9h3.1v-9.8h3.2V7.5H6.5l0-0.6c0-1.5,0-2.9,0.8-3.4l0.2-0.1h2.3V1.1H7.1C5.9,1.2,4.9,1.6,4.3,2.3
    C3.5,3.2,3.2,4.8,3.4,6.9l0.1,0.6H1.2v2.6h2.2V19.9z"/>
</g>
</symbol><symbol id="heart-active" viewBox="0 0 20 20">
<path d="M5 1.25C7.7625 1.25 10 3.44375 10 6.15C10 3.44375 12.2375 1.25 15 1.25C17.7625 1.25 20 3.44375 20 6.15C20 10.2288 15.9575 11.6675 10.49 18.16C10.4298 18.2313 10.3548 18.2886 10.2701 18.3279C10.1855 18.3672 10.0933 18.3876 10 18.3876C9.90668 18.3876 9.81449 18.3672 9.72986 18.3279C9.64523 18.2886 9.57019 18.2313 9.51 18.16C4.0425 11.6675 0 10.2288 0 6.15C0 3.44375 2.2375 1.25 5 1.25Z" fill="#F02323"/>
</symbol><symbol id="heart" viewBox="0 0 20 20">
<g opacity="0.3">
<path fill-rule="evenodd" clip-rule="evenodd" d="M10 8.12436L11.1175 5.77557C11.395 5.19396 11.8762 4.35764 12.5575 3.68149C13.2275 3.01585 14.03 2.5629 15 2.5629C17.095 2.5629 18.75 4.30381 18.75 6.39658C18.75 7.9865 18.0575 9.10903 16.415 10.8211C15.9937 11.2596 15.5138 11.7335 14.9825 12.2561C13.5975 13.6215 11.875 15.3204 10 17.5917C8.125 15.3204 6.4025 13.6215 5.0175 12.2561C4.48625 11.7335 4.005 11.2583 3.585 10.8211C1.9425 9.10903 1.25 7.9865 1.25 6.39658C1.25 4.30381 2.905 2.5629 5 2.5629C5.97 2.5629 6.7725 3.01585 7.4425 3.68149C8.12375 4.35764 8.605 5.19396 8.8825 5.77557L10 8.12436ZM10.49 19.0109C10.4298 19.0858 10.3548 19.146 10.2701 19.1873C10.1855 19.2286 10.0933 19.25 10 19.25C9.90668 19.25 9.81449 19.2286 9.72986 19.1873C9.64523 19.146 9.57019 19.0858 9.51 19.0109C7.50875 16.5138 5.6975 14.7283 4.20625 13.2591C1.625 10.7134 0 9.11297 0 6.39658C0 3.55414 2.2375 1.25 5 1.25C7 1.25 8.39875 2.62855 9.255 3.88631C9.58 4.36552 9.8275 4.82635 10 5.18871C10.2162 4.73519 10.4653 4.29978 10.745 3.88631C11.6012 2.62723 13 1.25 15 1.25C17.7625 1.25 20 3.55414 20 6.39658C20 9.11297 18.375 10.7134 15.7938 13.2591C14.3025 14.7296 12.4913 16.5151 10.49 19.0096V19.0109Z" fill="#192144"/>
</g>
</symbol><symbol id="htmlacademy" viewBox="0 0 27 34">
<style type="text/css">.st0{fill:#231F20;}</style>
<path class="st0" d="M13.6,0l-0.2,0L0,1.4V26l13.5,8L27,26l0,0V1.4L13.6,0z M19.3,16.8l-0.9,0.5l-5-3l0,1.4l3.8,2.3l-0.8,0.5l-3-1.8
  l0,1.4l1.9,1.1l-1.8,1.1L2,13.6l11.4-6.8L25,13.5l-4.5,2.6l-7.1-4.2l0,1.4L19.3,16.8z M1.9,15.1l11.4,6.8l0,1l-8-4.7l0,1.4l8,4.8
  l0,1.1l-8-4.7l0,1.4l8,4.8l0,0l8.2-4.9v-1.3l0-0.1V17l3.4-2v10l-11.6,6.9L1.9,24.9V15.1z M1.9,12.1V3.1l11.6-1.2l11.6,1.2v9
  L13.5,5.3l0-0.1l-0.1,0l-0.1,0v0.1L1.9,12.1z"/>
</symbol><symbol id="instagram" viewBox="0 0 23 23">
  <style type="text/css">.st0{fill:#231F20;}</style>
  <path class="st0" d="M17,1.5c2.5,0,4.5,2,4.5,4.5v11c0,2.5-2,4.5-4.5,4.5H6c-2.5,0-4.5-2-4.5-4.5V6c0-2.5,2-4.5,4.5-4.5L17,1.5
  M17,0H6C2.7,0,0,2.7,0,6v11c0,3.3,2.7,6,6,6h11c3.3,0,6-2.7,6-6V6C23,2.7,20.3,0,17,0L17,0z"/>
  <path class="st0" d="M11.5,7.1c2.4,0,4.4,2,4.4,4.4c0,2.4-2,4.4-4.4,4.4c-2.4,0-4.4-2-4.4-4.4C7.1,9.1,9.1,7.1,11.5,7.1 M11.5,5.6
  c-3.3,0-5.9,2.7-5.9,5.9s2.7,5.9,5.9,5.9s5.9-2.7,5.9-5.9S14.8,5.6,11.5,5.6L11.5,5.6z"/>
  <circle class="st0" cx="17.6" cy="5.4" r="1.3"/>
</symbol><symbol id="plane" viewBox="0 0 23 22">
<g clip-path="url(#clip0)">
<path d="M18.5347 1.18042C17.7301 1.36085 16.9218 1.54212 16.6212 2.03885L14.2941 6.4124L1.79919 9.21454L1.29295 10.612L10.8544 11.4648L9.23212 15.251L5.60602 16.0642L4.69562 17.5523L7.31158 17.8202L7.60988 19.0372C7.74352 19.4686 8.21259 19.7566 8.61297 19.6668L9.82168 19.3958L11.2228 21.6493L12.1332 20.1613L11.2383 16.5103L13.8637 13.3537L18.8731 21.6469L19.8832 20.5657L16.8005 7.98882L19.6314 3.93156C19.9358 3.43399 19.7373 2.62393 19.5378 1.81006C19.439 1.40693 18.9351 1.09063 18.5347 1.18042Z" fill="#1D2E5B"/>
</g>

</symbol><symbol id="qty-minus" viewBox="0 0 20 2">
<line y1="1" x2="20" y2="1" stroke="#CCCCCC" stroke-width="2"/>
</symbol><symbol id="qty-plus" viewBox="0 0 24 20">
<g opacity="0.2">
  <line x1="4" y1="9.97229" x2="24" y2="9.97229" stroke="#000000" stroke-width="2"/>
  <line x1="14" y1="19.7223" x2="14" y2="0.277845" stroke="#000000" stroke-width="2"/>
</g>
</symbol><symbol id="run" viewBox="0 0 23 22">
<path d="M16.2917 5.50001C17.3502 5.50001 18.2083 4.6792 18.2083 3.66668C18.2083 2.65415 17.3502 1.83334 16.2917 1.83334C15.2331 1.83334 14.375 2.65415 14.375 3.66668C14.375 4.6792 15.2331 5.50001 16.2917 5.50001Z" fill="#1D2E5B"/>
<path d="M15.1197 10.0549C15.3397 10.3685 15.6552 10.6097 16.0235 10.7458C16.3917 10.8819 16.7949 10.9063 17.1782 10.8157L20.356 10.0558L19.8931 8.27747L16.7153 9.03739L15.3937 7.14264C15.1114 6.73799 14.6732 6.45658 14.1747 6.3598L10.489 5.65397C10.0767 5.57482 9.64855 5.62772 9.27079 5.80449C8.89302 5.98127 8.58661 6.2721 8.39886 6.63205L6.80995 9.67172L8.52441 10.4921L10.1133 7.45155L11.9984 7.81272L7.12428 15.5833H2.87503V17.4166H7.12428C7.7932 17.4166 8.42282 17.0756 8.76782 16.5266L10.6059 13.5969L15.5595 14.5447L17.2999 19.5396L19.1169 18.9594L17.3775 13.9654C17.2701 13.6588 17.0802 13.3847 16.8268 13.1706C16.5735 12.9566 16.2656 12.8102 15.9342 12.7462L13.0219 12.1898L14.72 9.48197L15.1197 10.0549Z" fill="#1D2E5B"/>
</symbol><symbol id="topmenu-mail" viewBox="0 0 19 17">
<path d="M2.0166 3.32528L8.7666 7.55572C8.9934 7.69747 9.2868 7.76467 9.582 7.76467C9.8772 7.76467 10.1706 7.69747 10.3974 7.55572L17.1474 3.32528C17.5875 3.04913 18.0033 1.97498 17.196 1.97498H1.9689C1.1616 1.97498 1.5774 3.04913 2.0166 3.32528ZM17.3517 5.63842L10.3974 9.86677C10.0914 10.0537 9.8772 10.0757 9.582 10.0757C9.2868 10.0757 9.0726 10.0537 8.7666 9.86677C8.4606 9.67987 2.3469 5.94082 1.8474 5.63737C1.4964 5.42317 1.5 5.67412 1.5 5.86732V13.525C1.5 13.966 2.0094 14.575 2.4 14.575H16.8C17.1906 14.575 17.7 13.966 17.7 13.525V5.86837C17.7 5.67517 17.7036 5.42422 17.3517 5.63842Z" fill="#161C35"/>
</symbol><symbol id="topmenu-phone" viewBox="0 0 19 19">
<path d="M9.77429 8.22389C9.77429 8.41289 9.92792 8.56139 10.1157 8.56139C10.5048 8.56139 10.8189 8.87526 10.8189 9.25664C10.8189 9.44226 10.9725 9.59414 11.1603 9.59414C11.348 9.59414 11.5017 9.44226 11.5017 9.25664C11.5017 8.50064 10.8804 7.88639 10.1157 7.88639C9.92792 7.88639 9.77429 8.03827 9.77429 8.22389ZM15.332 9.59414C15.5231 9.59414 15.6733 9.44226 15.6733 9.25664C15.6733 6.22589 13.1813 3.76215 10.1157 3.76215C9.92792 3.76215 9.77429 3.914 9.77429 4.09965C9.77429 4.28527 9.92792 4.43715 10.1157 4.43715C12.8057 4.43715 14.9906 6.60051 14.9906 9.25664C14.9906 9.44226 15.1442 9.59414 15.332 9.59414Z" fill="#161C35"/>
<path d="M12.9047 9.25661C12.9047 9.44223 13.0583 9.59411 13.2461 9.59411C13.4339 9.59411 13.5875 9.44223 13.5875 9.25661C13.5875 7.36324 12.0308 5.82424 10.1157 5.82424C9.9279 5.82424 9.77427 5.97612 9.77427 6.16174C9.77427 6.35074 9.9279 6.49924 10.1157 6.49924C11.6553 6.49924 12.9047 7.73786 12.9047 9.25661ZM10.1157 1.69998C9.9279 1.69998 9.77427 1.85186 9.77427 2.03748C9.77427 2.22312 9.9279 2.37498 10.1157 2.37498C13.9562 2.37498 17.0798 5.46312 17.0798 9.25661C17.0798 9.44223 17.23 9.59411 17.4212 9.59411C17.6089 9.59411 17.7626 9.44223 17.7626 9.25661C17.7626 5.0885 14.3317 1.69998 10.1157 1.69998ZM13.4509 12.8139L13.0037 13.0535C12.2493 13.4619 11.6622 14.5812 10.7312 13.7375L8.30011 11.3L6.20004 9.25661C5.14495 7.92348 6.32635 7.60623 6.73941 6.85699L6.98179 6.41825C7.25489 5.91873 7.35388 5.35849 7.27196 4.79823C7.19345 4.23799 6.93741 3.72836 6.52775 3.32336C6.02935 2.83062 5.36707 2.56062 4.66042 2.56062C3.95376 2.56062 3.28807 2.83062 2.78964 3.32336L2.61556 3.49886C1.69383 4.41012 1.588 5.97948 2.31514 7.92348C3.0013 9.77973 4.3839 11.7912 6.20004 13.5867C8.96862 16.3239 12.0513 17.9 14.2634 17.9C15.1373 17.9 15.8781 17.6536 16.4039 17.1339L16.5814 16.9584C17.0764 16.469 17.3529 15.8142 17.3563 15.1089C17.3529 14.4204 17.0695 13.7454 16.5814 13.2627C15.7587 12.4494 14.4717 12.2671 13.4509 12.8139Z" fill="#161C35"/>
</symbol><symbol id="vk" viewBox="0 0 30 15.8">
<g>
  <path d="M23.9,15.8c-0.4,0-1.2-0.1-2.1-0.6c-0.6-0.4-1.2-1-1.8-1.5c-0.4-0.4-1.2-1.2-1.4-1.2c-0.3,0.1-0.5,0.9-0.5,1.6
    c0,0.1,0,0.8-0.5,1.2c-0.4,0.4-1.1,0.5-1.2,0.5l-1.9,0c-1,0-4.4-0.2-7.4-3c-3.7-3.4-6.8-9.8-7-10.1C0,2.2-0.1,1.5,0.3,1.1
    c0.4-0.4,1.1-0.5,1.4-0.5l4.1,0l0.1,0c0.1,0,0.6,0.1,1,0.3c0.4,0.2,0.6,0.7,0.6,0.7c0,0,0.6,1.4,1.5,2.7c1.3,2,1.9,2.5,2.1,2.6
    c0.2-0.4,0.3-1.7,0.2-2.9c0-0.5-0.1-1.1-0.3-1.3c-0.1-0.1-0.4-0.3-0.8-0.3L9.5,1.8c-0.1-0.7,0.6-1.2,1.1-1.4
    C11.3,0.1,12.4,0,13.7,0l0.7,0c1.2,0,1.6,0.1,2.1,0.2c1.7,0.4,1.6,1.7,1.6,3.3c0,0.5,0,1,0,1.6c0,0.2,0,0.3,0,0.5
    c0,0.4,0,1,0.1,1.3c0.2-0.1,0.9-0.7,2.1-2.5c0.8-1.2,1.4-2.5,1.5-2.8l0,0c0.2-0.4,0.6-0.9,1.6-0.9l4.3,0c0,0,0.2,0,0.4,0
    c1,0,1.6,0.3,1.8,0.9c0.3,0.6,0.2,1.7-2.4,4.6c-0.4,0.4-0.7,0.8-1,1.1c-0.6,0.7-1.2,1.4-1.2,1.6C25.4,9,26,9.5,26.6,10
    c1.5,1.2,2.5,2.3,3,3.1c0.5,0.8,0.4,1.3,0.3,1.7c-0.4,0.9-1.6,1-1.9,1l-3.8,0C24.1,15.8,24.1,15.8,23.9,15.8z M18.6,10.9
    c0.9,0,1.7,0.8,2.5,1.6c0.5,0.5,1,1,1.5,1.3c0.7,0.4,1.3,0.4,1.4,0.4l0.1,0l3.8,0c0.2,0,0.4-0.1,0.5-0.1c0,0,0-0.1-0.1-0.2
    c-0.4-0.7-1.4-1.7-2.7-2.7c-1.2-1-1.8-1.5-1.9-2.2c-0.1-0.8,0.5-1.4,1.6-2.7c0.3-0.3,0.6-0.7,1-1.1c1.6-1.8,2-2.6,2.1-3
    c-0.2,0-0.6,0-0.7,0l-4.4,0c-0.2,0-0.2,0-0.2,0c-0.2,0.4-0.8,1.8-1.6,3c-1.9,2.8-2.8,3.2-3.4,3.2c-0.2,0-0.4,0-0.6-0.1
    c-1-0.6-1-1.8-0.9-2.8c0-0.1,0-0.3,0-0.4c0-0.6,0-1.2,0-1.7c0.1-1.7,0-1.7-0.4-1.8c-0.4-0.1-0.7-0.1-1.9-0.2l-0.7,0
    c-0.6,0-1.3,0-1.9,0.1c0.1,0.1,0.2,0.2,0.3,0.3c0.6,0.7,0.6,2,0.6,2.2c0.1,1.6,0.1,3.8-1,4.3c-0.2,0.1-0.4,0.1-0.6,0.1
    c-0.9,0-1.9-0.9-3.4-3.3C6.8,3.9,6.1,2.4,6.1,2.3c0,0-0.1-0.1-0.1-0.1C5.9,2.2,5.8,2.1,5.7,2.1l-4,0c0,0,0,0-0.1,0
    C2.2,3.3,5,8.7,8.1,11.6c2.7,2.5,5.8,2.6,6.4,2.6l1.9,0c0,0,0.2-0.1,0.3-0.1c0,0,0-0.1,0-0.1c0-0.3,0-2.6,1.6-3
    C18.4,10.9,18.5,10.9,18.6,10.9z"/>
</g>
</symbol></svg>