<svg width="30" height="36" viewBox="0 0 30 36" fill="none" xmlns="http://www.w3.org/2000/svg">
<g opacity="0.3">
<path d="M21.9389 1.90905C21.7326 1.69813 21.4875 1.53078 21.2176 1.4166C20.9477 1.30243 20.6584 1.24365 20.3662 1.24365C20.0741 1.24365 19.7848 1.30243 19.5149 1.4166C19.245 1.53078 18.9999 1.69813 18.7936 1.90905L4.02659 16.966C3.86185 17.1336 3.73116 17.3328 3.64199 17.5519C3.55281 17.7711 3.50691 18.0061 3.50691 18.2434C3.50691 18.4807 3.55281 18.7157 3.64199 18.9349C3.73116 19.1541 3.86185 19.3532 4.02659 19.5208L18.7936 34.5778C19.6643 35.4656 21.0682 35.4656 21.9389 34.5778C22.8096 33.6899 22.2654 32.7144 21.3946 31.8266L8.3349 18.2434L21.3946 4.59045C21.8969 4.07657 22.8096 2.77876 21.9389 1.90905Z" fill="black"/>
</g>
</svg>
