<svg width="50" height="50" fill="none" xmlns="http://www.w3.org/2000/svg"><circle cx="25" cy="25" r="25" fill="#FF8D30"/><path d="M24.9742 23.4239c0 .189.1536.3375.3414.3375.3891 0 .7032.3139.7032.6952 0 .1857.1536.3375.3414.3375.1877 0 .3414-.1518.3414-.3375 0-.756-.6214-1.3702-1.386-1.3702-.1878 0-.3414.1519-.3414.3375zm5.5576 1.3702c.1912 0 .3414-.1518.3414-.3375 0-3.0307-2.4921-5.4945-5.5576-5.4945-.1878 0-.3414.1519-.3414.3375 0 .1857.1536.3375.3414.3375 2.69 0 4.8749 2.1634 4.8749 4.8195 0 .1857.1536.3375.3413.3375z" fill="#161C35"/><path d="M28.1046 24.4566c0 .1857.1536.3375.3414.3375s.3414-.1518.3414-.3375c0-1.8933-1.5567-3.4323-3.4719-3.4323-.1877 0-.3413.1518-.3413.3375 0 .189.1536.3375.3413.3375 1.5397 0 2.7891 1.2386 2.7891 2.7573zM25.3155 16.9c-.1877 0-.3413.1519-.3413.3375 0 .1856.1536.3375.3413.3375 3.8406 0 6.9642 3.0881 6.9642 6.8816 0 .1857.1502.3375.3414.3375.1877 0 .3413-.1518.3413-.3375 0-4.1681-3.4308-7.5566-7.6469-7.5566zm3.3353 11.1139l-.4472.2396c-.7544.4084-1.3415 1.5278-2.2726.684L23.5 26.5l-2.1001-2.0434c-1.0551-1.3331.1263-1.6503.5394-2.3996l.2424-.4387c.2731-.4995.3721-1.0598.2901-1.62-.0785-.5603-.3345-1.0699-.7442-1.4749-.4984-.4928-1.1606-.7628-1.8673-.7628-.7067 0-1.3723.27-1.8708.7628l-.1741.1755c-.9217.9112-1.0275 2.4806-.3004 4.4246.6862 1.8563 2.0688 3.8678 3.8849 5.6633 2.7686 2.7371 5.8513 4.3132 8.0634 4.3132.8739 0 1.6147-.2464 2.1404-.7661l.1776-.1755c.495-.4894.7715-1.1441.7749-1.8495-.0034-.6885-.2868-1.3635-.7749-1.8461-.8228-.8134-2.1098-.9957-3.1305-.4489z" fill="#161C35"/></svg>