<svg width="50" height="50" fill="none" xmlns="http://www.w3.org/2000/svg"><circle cx="25" cy="25" r="25" fill="#FFBD30"/><path d="M18.2591 20.6003l6 3.7604c.2016.126.4624.1857.7248.1857s.5232-.0597.7248-.1857l6-3.7604c.3912-.2455.7608-1.2003.0432-1.2003H18.2167c-.7176 0-.348.9548.0424 1.2003zm13.6312 2.0561l-6.1816 3.7585c-.272.1662-.4624.1858-.7248.1858s-.4528-.0196-.7248-.1858c-.272-.1661-5.7064-3.4897-6.1504-3.7594-.312-.1904-.3088.0326-.3088.2044v6.8068c0 .392.4528.9333.8.9333h12.8c.3472 0 .8-.5413.8-.9333v-6.8059c0-.1717.0032-.3948-.3096-.2044z" fill="#161C35"/></svg>