<svg width="31" height="16" fill="none" xmlns="http://www.w3.org/2000/svg"><path d="M23.9461 15.7775a4.0491 4.0491 0 01-2.08-.63 10.1699 10.1699 0 01-1.78-1.53c-.44-.44-1.17-1.18-1.45-1.18s-.48.92-.47 1.57a1.75 1.75 0 01-.47 1.21 2.2597 2.2597 0 01-1.22.5h-1.92c-2.7596-.0607-5.40196-1.1275-7.43004-3-3.68-3.36997-6.84-9.80997-6.97-10.08997a1.33999 1.33999 0 01.15-1.48 2.07001 2.07001 0 011.36-.48h4.2a2.45 2.45 0 01.95.35 1.81992 1.81992 0 01.63.73 22.09072 22.09072 0 001.48 2.67c1.31004 2 1.89004 2.46 2.10004 2.56a8.12169 8.12169 0 00.19-2.87 2.7015 2.7015 0 00-.21-1.28 1.33032 1.33032 0 00-.77-.29l-.73004-.69c-.14-.66.59004-1.23 1.10004-1.45a8.68958 8.68958 0 013.15-.38h.71a9.11028 9.11028 0 012.15.2c1.7.36 1.64 1.73 1.57 3.31 0 .46-.05 1-.05 1.62v.48a4.1061 4.1061 0 00.09 1.3 9.09055 9.09055 0 002.07-2.48 20.39616 20.39616 0 001.52-2.8 1.58003 1.58003 0 011.6-.95h4.28a1.99994 1.99994 0 01.38 0c1 0 1.59.29 1.83.85s.17 1.66-2.36 4.61l-1 1.13a7.3398 7.3398 0 00-1.24 1.59 7.0551 7.0551 0 001.28 1.13997 14.25393 14.25393 0 013 3.07c.1968.2273.3256.5055.3715.8026.046.2972.0074.6013-.1115.8774-.2096.3059-.49.5566-.8173.7307a2.3005 2.3005 0 01-1.0627.2693l-3.79.05-.23-.04zm-5.31-4.84c.9 0 1.68.79 2.51 1.62.4483.4896.9516.9258 1.5 1.3.4146.2758.902.422 1.4.42h.1l3.8-.05c.1874-.0107.3709-.0583.54-.14l-.1-.16a13.22136 13.22136 0 00-2.68-2.72c-1.19-1-1.8-1.46997-1.87-2.23997-.07-.77.49-1.44 1.61-2.71l1-1.11a10.73106 10.73106 0 002.05-2.95 5.66004 5.66004 0 00-.67 0h-4.37a.54992.54992 0 00-.24 0 20.5074 20.5074 0 01-1.65 3.05c-1.89 2.82-2.78 3.2-3.41 3.2-.1954 0-.3877-.04808-.56-.14-1-.57-1-1.84-.94-2.76v-.43c0-.65 0-1.21.05-1.69.08-1.68 0-1.69-.38-1.78a8.56107 8.56107 0 00-1.86-.16h-.69c-.635-.01312-1.27.02031-1.9.1.0954.07031.1797.15459.25.25a3.8111 3.8111 0 01.59 2.18c.13 1.65.06 3.8-1 4.32a1.37997 1.37997 0 01-.6.13c-.93 0-1.85004-.88-3.42004-3.26a23.41997 23.41997 0 01-1.61-2.85l-.08-.1a1.21005 1.21005 0 00-.32-.11h-4.07c.59 1.22 3.39 6.62 6.52 9.44997 1.75758 1.6147 4.03474 2.5476 6.42004 2.63h1.85a.99888.99888 0 00.27-.1v-.09c0-.27 0-2.6 1.58-3 .1223-.0481.2498-.0817.38-.1z" fill="#192144"/></svg>