<svg width="62" height="62" fill="none" xmlns="http://www.w3.org/2000/svg"><circle cx="31" cy="31" r="31" fill="#FFD74B"/><path d="M39.9461 38.7775a4.0491 4.0491 0 01-2.08-.63 10.1699 10.1699 0 01-1.78-1.53c-.44-.44-1.17-1.18-1.45-1.18s-.48.92-.47 1.57a1.75 1.75 0 01-.47 1.21 2.2597 2.2597 0 01-1.22.5h-1.92c-2.7596-.0607-5.402-1.1275-7.43-3-3.68-3.37-6.84-9.81-6.97-10.09a1.3399 1.3399 0 01-.1493-.7627c.0267-.2634.1309-.513.2993-.7173a2.0701 2.0701 0 011.36-.48h4.2c.3375.0493.6611.1685.95.35.2718.1823.4894.4345.63.73a22.0652 22.0652 0 001.48 2.67c1.31 2 1.89 2.46 2.1 2.56a8.12155 8.12155 0 00.19-2.87 2.70154 2.70154 0 00-.21-1.28 1.3308 1.3308 0 00-.77-.29l-.73-.69c-.14-.66.59-1.23 1.1-1.45a8.68997 8.68997 0 013.15-.38h.71a9.11383 9.11383 0 012.15.2c1.7.36 1.64 1.73 1.57 3.31 0 .46-.05 1-.05 1.62v.48c-.0394.4354-.009.8742.09 1.3a9.08877 9.08877 0 002.07-2.48 20.38974 20.38974 0 001.52-2.8 1.58002 1.58002 0 011.6-.95h4.28c.1263-.012.2536-.012.38 0 1 0 1.59.29 1.83.85s.17 1.66-2.36 4.61l-1 1.13a7.34174 7.34174 0 00-1.24 1.59c.3787.4306.8086.8134 1.28 1.14a14.25393 14.25393 0 013 3.07c.1968.2273.3256.5055.3715.8026.046.2972.0074.6013-.1115.8774-.2096.3059-.49.5566-.8173.7307a2.3005 2.3005 0 01-1.0627.2693l-3.79.05-.23-.04zm-5.31-4.84c.9 0 1.68.79 2.51 1.62.4483.4896.9516.9258 1.5 1.3.4146.2758.902.422 1.4.42h.1l3.8-.05c.1874-.0107.3709-.0583.54-.14l-.1-.16a13.22136 13.22136 0 00-2.68-2.72c-1.19-1-1.8-1.47-1.87-2.24-.07-.77.49-1.44 1.61-2.71l1-1.11a10.72971 10.72971 0 002.05-2.95 5.67288 5.67288 0 00-.67 0h-4.37a.55205.55205 0 00-.24 0 20.50293 20.50293 0 01-1.65 3.05c-1.89 2.82-2.78 3.2-3.41 3.2-.1954 0-.3877-.048-.56-.14-1-.57-1-1.84-.94-2.76v-.43c0-.65 0-1.21.05-1.69.08-1.68 0-1.69-.38-1.78a8.5617 8.5617 0 00-1.86-.16h-.69c-.635-.0131-1.27.0203-1.9.1.0954.0703.1797.1546.25.25a3.8112 3.8112 0 01.59 2.18c.13 1.65.06 3.8-1 4.32a1.37868 1.37868 0 01-.6.13c-.93 0-1.85-.88-3.42-3.26a23.41198 23.41198 0 01-1.61-2.85l-.08-.1a1.2128 1.2128 0 00-.32-.11h-4.07c.59 1.22 3.39 6.62 6.52 9.45a9.99961 9.99961 0 006.42 2.63h1.85a.99888.99888 0 00.27-.1v-.09c0-.27 0-2.6 1.58-3 .1223-.0481.2498-.0817.38-.1z" fill="#192144"/></svg>