<svg width="62" height="62" fill="none" xmlns="http://www.w3.org/2000/svg"><circle cx="31" cy="31" r="31" fill="#FFD74B"/><path d="M36.28 21.4a4.33 4.33 0 014.32 4.32v10.56a4.33 4.33 0 01-4.32 4.32H25.72a4.33 4.33 0 01-4.31-4.32V25.72a4.33 4.33 0 014.31-4.32h10.56zm0-1.44H25.72a5.76 5.76 0 00-5.76 5.76v10.56a5.76 5.76 0 005.76 5.76h10.56a5.76 5.76 0 005.76-5.76V25.72a5.76 5.76 0 00-5.76-5.76z" fill="#192144"/><path d="M31.01 26.756a4.253 4.253 0 11-4.254 4.253 4.244 4.244 0 014.253-4.253zm0-1.44a5.693 5.693 0 105.683 5.693 5.681 5.681 0 00-5.684-5.693zM36.904 26.413a1.286 1.286 0 100-2.573 1.286 1.286 0 000 2.573z" fill="#192144"/></svg>