<svg width="18" height="20" viewBox="0 0 18 20" fill="none" xmlns="http://www.w3.org/2000/svg">
<g clip-path="url(#clip0)">
<path opacity="0.15" d="M4.50099 13.5714C4.50099 13.1771 4.35457 12.8404 4.06172 12.5614C3.76888 12.2824 3.41551 12.1429 3.00162 12.1429C2.58773 12.1429 2.23436 12.2824 1.94151 12.5614C1.64867 12.8404 1.50224 13.1771 1.50224 13.5714C1.50224 13.9658 1.64867 14.3025 1.94151 14.5815C2.23436 14.8605 2.58773 15 3.00162 15C3.41551 15 3.76888 14.8605 4.06172 14.5815C4.35457 14.3025 4.50099 13.9658 4.50099 13.5714ZM16.496 13.5714C16.496 13.1771 16.3496 12.8404 16.0567 12.5614C15.7639 12.2824 15.4105 12.1429 14.9966 12.1429C14.5827 12.1429 14.2294 12.2824 13.9365 12.5614C13.6437 12.8404 13.4972 13.1771 13.4972 13.5714C13.4972 13.9658 13.6437 14.3025 13.9365 14.5815C14.2294 14.8605 14.5827 15 14.9966 15C15.4105 15 15.7639 14.8605 16.0567 14.5815C16.3496 14.3025 16.496 13.9658 16.496 13.5714ZM15.9572 9.15179L15.1138 4.86607C15.0747 4.69494 14.9869 4.55543 14.8502 4.44754C14.7135 4.33966 14.5554 4.28571 14.3758 4.28571H3.62245C3.44284 4.28571 3.2847 4.33966 3.14804 4.44754C3.01138 4.55543 2.92353 4.69494 2.88448 4.86607L2.04108 9.15179C2.00204 9.375 2.0567 9.57217 2.20508 9.7433C2.35345 9.91443 2.54478 10 2.77906 10H15.2192C15.4535 10 15.6448 9.91443 15.7932 9.7433C15.9415 9.57217 15.9962 9.375 15.9572 9.15179ZM13.3098 2.32143C13.3098 2.17262 13.2552 2.04613 13.1458 1.94196C13.0365 1.8378 12.9037 1.78571 12.7476 1.78571H5.25068C5.0945 1.78571 4.96174 1.8378 4.85241 1.94196C4.74308 2.04613 4.68842 2.17262 4.68842 2.32143C4.68842 2.47024 4.74308 2.59673 4.85241 2.70089C4.96174 2.80506 5.0945 2.85714 5.25068 2.85714H12.7476C12.9037 2.85714 13.0365 2.80506 13.1458 2.70089C13.2552 2.59673 13.3098 2.47024 13.3098 2.32143ZM17.9954 10.4129V17.1429H16.496V18.5714C16.496 18.9658 16.3496 19.3025 16.0567 19.5815C15.7639 19.8605 15.4105 20 14.9966 20C14.5827 20 14.2294 19.8605 13.9365 19.5815C13.6437 19.3025 13.4972 18.9658 13.4972 18.5714V17.1429H4.50099V18.5714C4.50099 18.9658 4.35457 19.3025 4.06172 19.5815C3.76888 19.8605 3.41551 20 3.00162 20C2.58773 20 2.23436 19.8605 1.94151 19.5815C1.64867 19.3025 1.50224 18.9658 1.50224 18.5714V17.1429H0.00286865V10.4129C0.00286865 9.57961 0.100484 8.75 0.295715 7.92411L1.50224 2.85714C1.57253 2.27679 1.95323 1.76711 2.64435 1.32812C3.33546 0.889137 4.23353 0.558036 5.33854 0.334821C6.44354 0.111607 7.66374 0 8.99912 0C10.3345 0 11.5547 0.111607 12.6597 0.334821C13.7647 0.558036 14.6628 0.889137 15.3539 1.32812C16.045 1.76711 16.4257 2.27679 16.496 2.85714L17.726 7.92411C17.9056 8.68304 17.9954 9.51265 17.9954 10.4129Z" fill="#1D2E5B"/>
</g>
<defs>
<clipPath id="clip0">
<rect width="18" height="20" fill="white"/>
</clipPath>
</defs>
</svg>
