<svg width="33" height="33" viewBox="0 0 33 33" fill="none" xmlns="http://www.w3.org/2000/svg">
<circle cx="15.7585" cy="15.7585" r="15.7585" fill="white"/>
<g clip-path="url(#clip0)">
<path d="M20.9146 8.9277C20.3249 9.05994 19.7325 9.19281 19.5121 9.55688L17.8065 12.7625L8.64828 14.8163L8.27723 15.8406L15.2853 16.4657L14.0963 19.2408L11.4385 19.8368L10.7712 20.9275L12.6886 21.1239L12.9073 22.0159C13.0052 22.3321 13.349 22.5432 13.6425 22.4774L14.5284 22.2787L15.5554 23.9305L16.2227 22.8398L15.5667 20.1638L17.491 17.8502L21.1627 23.9287L21.9031 23.1363L19.6435 13.9179L21.7185 10.9442C21.9416 10.5795 21.7961 9.98572 21.6499 9.38919C21.5774 9.09371 21.2081 8.86188 20.9146 8.9277Z" fill="#1D2E5B"/>
</g>
<defs>
<clipPath id="clip0">
<rect width="16.858" height="16.125" fill="white" transform="translate(7.32956 8.0625)"/>
</clipPath>
</defs>
</svg>
